<svg id="visual" viewBox="0 0 900 600" width="900" height="600" xmlns="http://www.w3.org/2000/svg" xmlns:xlink="http://www.w3.org/1999/xlink" version="1.1"><path d="M0 394L10.7 394.5C21.3 395 42.7 396 64.2 411.2C85.7 426.3 107.3 455.7 128.8 472.7C150.3 489.7 171.7 494.3 193 494.3C214.3 494.3 235.7 489.7 257 486.3C278.3 483 299.7 481 321.2 471.5C342.7 462 364.3 445 385.8 440.5C407.3 436 428.7 444 450 456.5C471.3 469 492.7 486 514.2 483.3C535.7 480.7 557.3 458.3 578.8 456.2C600.3 454 621.7 472 643 481.5C664.3 491 685.7 492 707 481.5C728.3 471 749.7 449 771.2 445.3C792.7 441.7 814.3 456.3 835.8 462.2C857.3 468 878.7 465 889.3 463.5L900 462L900 601L889.3 601C878.7 601 857.3 601 835.8 601C814.3 601 792.7 601 771.2 601C749.7 601 728.3 601 707 601C685.7 601 664.3 601 643 601C621.7 601 600.3 601 578.8 601C557.3 601 535.7 601 514.2 601C492.7 601 471.3 601 450 601C428.7 601 407.3 601 385.8 601C364.3 601 342.7 601 321.2 601C299.7 601 278.3 601 257 601C235.7 601 214.3 601 193 601C171.7 601 150.3 601 128.8 601C107.3 601 85.7 601 64.2 601C42.7 601 21.3 601 10.7 601L0 601Z" fill="#ef1525" stroke-linecap="round" stroke-linejoin="miter"></path></svg>